<?xml version="1.0" encoding="utf-8"?>
<!-- Generator: Adobe Illustrator 22.0.1, SVG Export Plug-In . SVG Version: 6.00 Build 0)  -->
<svg version="1.1" id="Layer_1" xmlns="http://www.w3.org/2000/svg" xmlns:xlink="http://www.w3.org/1999/xlink" x="0px" y="0px"
	 viewBox="0 0 9.1379 85" style="enable-background:new 0 0 9.1379 85;" xml:space="preserve">
<style type="text/css">
	.st0{fill:#dedede;}
</style>
<g>
	<path class="st0" d="M6.7541,42.8915c-0.3119-0.1232-0.6148-0.2607-0.8835-0.3947c-0.6823-0.3416-1.1065-0.6295-1.3707-0.865
		c-0.2633,0.2355-0.6878,0.5233-1.3704,0.865c-0.2681,0.134-0.5717,0.2716-0.8839,0.3947c0.3122,0.1231,0.6158,0.2601,0.8839,0.3947
		c0.6826,0.341,1.1071,0.6289,1.3704,0.8643c0.2642-0.2354,0.6884-0.5233,1.3707-0.8643
		C6.1392,43.1515,6.4422,43.0146,6.7541,42.8915z"/>
	<path class="st0" d="M4.4998,83.6116l0.5614-28.2379l-0.5595-4.163c0.0381-1.2684,0.951-3.1892,1.5329-3.1892
		c-0.5758,0-1.4763-1.8806-1.5319-3.149c0.0563-0.5912,2.8467-1.981,3.9973-1.981c-1.1503,0-3.941-1.3899-3.9973-1.9817
		c0.0557-1.2683,0.9562-3.1486,1.5319-3.1486c-0.5819,0-1.4948-1.9206-1.5329-3.1889l0.5595-4.163L4.4998,2.1708L3.9391,30.4092
		l0.5595,4.162c-0.0374,1.2683-0.951,3.1899-1.5326,3.1899c0.5755,0,1.476,1.8813,1.5316,3.1496
		C4.4381,41.5028,1.6503,42.8915,0.5,42.8915c1.1503,0,3.9381,1.388,3.9976,1.9801c-0.055,1.2683-0.9561,3.1499-1.5316,3.1499
		c0.5816,0,1.4952,1.9219,1.5326,3.1899l-0.5595,4.1623L4.4998,83.6116z M3.1295,43.2862
		c-0.2681-0.1347-0.5717-0.2716-0.8839-0.3947c0.3122-0.1232,0.6158-0.2607,0.8839-0.3947c0.6826-0.3416,1.1071-0.6295,1.3704-0.865
		c0.2642,0.2355,0.6884,0.5233,1.3707,0.865c0.2687,0.134,0.5716,0.2716,0.8835,0.3947c-0.3119,0.1231-0.6148,0.2601-0.8835,0.3947
		c-0.6823,0.341-1.1065,0.6289-1.3707,0.8643C4.2366,43.9151,3.8121,43.6272,3.1295,43.2862z"/>
</g>
</svg>
