<?xml version="1.0" encoding="utf-8"?>
<!-- Generator: Adobe Illustrator 22.0.1, SVG Export Plug-In . SVG Version: 6.00 Build 0)  -->
<svg version="1.1" id="Capa_1" xmlns="http://www.w3.org/2000/svg" xmlns:xlink="http://www.w3.org/1999/xlink" x="0px" y="0px"
	 viewBox="0 0 847.372 847.372" style="enable-background:new 0 0 847.372 847.372;" xml:space="preserve">
<style type="text/css">
	.st0{fill:#F5F5F5;}
	.st1{fill:none;}
</style>
<g>
	<path class="st0" d="M457.4766,445.5l-5.2959-2.2695v169.4844l6.0537-3.0264c19.1631-7.5664,32.4043-18.4072,39.7227-32.5352
		c7.3057-14.1152,10.9707-29.7568,10.9707-46.9111c0-21.1855-4.1611-38.458-12.4844-51.8291
		C488.1201,465.0537,475.1279,454.083,457.4766,445.5z"/>
	<path class="st0" d="M424.7734,14.9375c-227.701,0-412.2891,184.5881-412.2891,412.2891s184.5881,412.2891,412.2891,412.2891
		s412.2891-184.5881,412.2891-412.2891S652.4744,14.9375,424.7734,14.9375z M549.0293,613.4717
		c-17.1543,24.2119-40.6094,41.3662-70.3662,51.4512l-26.4824,6.8096v62.7998h-46.9111v-59.7734
		c-23.7153-0.5088-45.9058-3.5352-66.583-9.0801c-22.6992-6.0527-40.6099-14.1152-53.7207-24.2119
		c-11.6099-8.5713-17.4028-17.8984-17.4028-27.9951c0-5.5449,2.1401-12.6025,6.4316-21.1855
		c4.2798-8.5713,9.1978-16.6455,14.7544-24.2119c7.5659,6.5615,15.8892,12.7441,24.9688,18.5371
		c9.0791,5.8047,19.1636,11.2314,30.2651,16.2676c9.5757,4.043,19.4121,7.3184,29.5083,9.8359
		c10.0845,2.5303,20.6772,4.043,31.7783,4.54V425.8281c-7.0698-2.5186-13.749-5.0366-20.0508-7.5669
		c-6.313-2.5181-12.7441-5.0361-19.2939-7.5659c-24.7202-10.0845-45.3975-24.709-62.0435-43.8848
		c-16.646-19.1641-24.9688-45.894-24.9688-80.2026c0-34.2964,8.4414-62.292,25.3472-83.9858
		c16.894-21.6821,39.2144-37.0747,66.9614-46.1543c9.5762-3.5229,20.9258-6.0532,34.0483-7.5664V89.1279h46.9111v59.0171
		c12.6025,1.5132,24.9688,3.7827,37.0752,6.8096c21.1855,4.5396,38.8359,11.3491,52.9639,20.4287
		c7.5664,5.0483,13.9971,10.4746,19.2939,16.2676c5.2959,5.8047,7.9443,12.4844,7.9443,20.0508
		c0,6.0532-2.2695,12.6143-6.8096,19.6724c-4.54,7.0698-10.3447,14.1279-17.4023,21.1855
		c-6.5615-5.5444-15.6406-12.4844-27.2383-20.8071c-11.6104-8.3232-26.9912-15.251-46.1553-20.8076
		c-3.0264-1.0049-6.1826-1.7612-9.458-2.2695c-3.2861-0.4966-6.6914-1.0049-10.2139-1.5132V374.377
		c14.624,5.0479,29.5088,11.6094,44.6406,19.6724c11.0898,5.5566,21.4346,12.2358,31.0225,20.0508
		c9.5762,7.8262,17.7803,16.7759,24.5898,26.8599c6.8105,10.0967,12.2246,21.6943,16.2676,34.8057
		c4.0322,13.1221,6.0537,27.9951,6.0537,44.6406C574.7549,558.2373,566.1719,589.2598,549.0293,613.4717z"/>
	<path class="st0" d="M355.332,240.0752c-7.0698,12.3662-10.5928,26.1035-10.5928,41.2363c0,12.6143,2.27,23.4556,6.8096,32.5352
		c4.54,9.0796,11.0894,17.1543,19.6724,24.2119c10.0845,7.5664,21.186,13.8794,33.292,18.916l0.7563,0.7563V207.9185
		c-6.0527,1.0166-10.8525,2.5303-14.376,4.54C374.248,218.5112,362.3901,227.7207,355.332,240.0752z"/>
</g>
<polygon class="st1" points="52,12 56,12 56,12 52,12 "/>
</svg>
