<?xml version="1.0" encoding="utf-8"?>
<!-- Generator: Adobe Illustrator 22.0.1, SVG Export Plug-In . SVG Version: 6.00 Build 0)  -->
<svg version="1.1" id="Layer_1" xmlns="http://www.w3.org/2000/svg" xmlns:xlink="http://www.w3.org/1999/xlink" x="0px" y="0px"
	 viewBox="0 0 200 200" style="enable-background:new 0 0 200 200;" xml:space="preserve">
<style type="text/css">
	.st0{fill:#9E9E9E;}
	.st1{fill:#696969;}
	.st2{fill:#636363;}
</style>
<g>
	<ellipse class="st0" cx="100.0729" cy="99.9961" rx="94.6466" ry="94.998"/>
	<path class="st1" d="M100.073,9.4983c49.7072,0,90.1469,40.5972,90.1469,90.4979s-40.4397,90.4979-90.1469,90.4979
		S9.926,149.897,9.926,99.9962S50.3658,9.4983,100.073,9.4983 M100.073,0.4983C45.3156,0.4983,0.926,45.045,0.926,99.9962
		s44.3896,99.4979,99.1469,99.4979s99.1469-44.5468,99.1469-99.4979S154.8303,0.4983,100.073,0.4983L100.073,0.4983z"/>
</g>
<g id="Pe7AAL_1_">
	<g>
		<path class="st2" d="M161.1131,40.7045c-2.1497,6.7192-4.4955,13.3838-6.3839,20.1756c-1.3908,5.0023-3.9646,8.8362-7.867,12.3329
			c-18.761,16.8105-37.2841,33.8864-55.8939,50.8655c-0.257,0.2344-0.543,0.437-1.1996,0.9609
			c-2.6875-5.7596-6.747-10.0846-12.8247-12.6416c4.357-4.7993,8.4122-9.2869,12.4899-13.7541
			c14.2638-15.6264,28.5179-31.2618,42.8407-46.834c1.026-1.1155,2.4698-2.051,3.9008-2.5556
			c7.3219-2.5819,14.7062-4.9867,22.06-7.4788c0.808-0.2738,1.561-0.7099,2.3396-1.0708
			C160.7543,40.7045,160.9337,40.7045,161.1131,40.7045z"/>
		<path class="st2" d="M42.1753,149.4169c1.6101-4.1785,4.3348-6.8697,9.1-6.9517c0.4357-0.0075,0.9773-0.4209,1.2767-0.7987
			c4.6635-5.8846,9.2951-11.7945,14.0269-17.8167c-4.2169-4.1002-8.3189-8.0886-12.4785-12.133
			c2.291-2.1222,4.2962-3.9796,6.4553-5.9797c6.5883,4.6543,13.5206,9.5496,20.4478,14.4522
			c0.2897,0.205,0.585,0.4403,0.7871,0.7256c4.9583,6.9996,9.9042,14.008,14.8748,21.0466
			c-2.0304,1.9989-3.9355,3.8745-5.9349,5.8429c-3.9652-4.0715-7.9545-8.1677-12.0926-12.4167
			c-1.5227,1.1458-2.7283,2.023-3.9017,2.9415c-3.5962,2.8152-7.2016,5.6192-10.7607,8.4808
			c-2.287,1.8388-4.6258,3.2725-4.9563,6.9905c-0.3079,3.4634-3.3527,5.5548-7.0371,5.9643c-3.782,0.4203-7.014-1.2697-8.7303-4.497
			c-0.3671-0.6902-0.7183-1.3888-1.0768-2.0835C42.1753,151.9284,42.1753,150.6726,42.1753,149.4169z"/>
	</g>
</g>
</svg>
