<?xml version="1.0" encoding="utf-8"?>
<!-- Generator: Adobe Illustrator 22.0.1, SVG Export Plug-In . SVG Version: 6.00 Build 0)  -->
<svg version="1.1" id="Layer_1" xmlns="http://www.w3.org/2000/svg" xmlns:xlink="http://www.w3.org/1999/xlink" x="0px" y="0px"
	 viewBox="0 0 125.4296 200" style="enable-background:new 0 0 125.4296 200;" xml:space="preserve">
<style type="text/css">
	.st0{fill:#5C4A4D;}
	.st1{fill:#77676A;}
	.st2{fill:#503D40;}
	.st3{fill:#988889;}
	.st4{fill:none;stroke:#00FFE2;stroke-width:0.7363;stroke-miterlimit:10;}
	.st5{fill:#F6877A;}
	.st6{fill:#B2A6A7;}
	.st7{fill:#C7B8BB;}
	.st8{fill:#DED5D7;}
	.st9{fill:#F7978B;}
	.st10{fill:#FFC3A5;}
	.st11{fill:#3B2B3B;}
	.st12{fill:#D4C8CB;}
	.st13{fill:#87797C;}
	.st14{fill:#453645;}
	.st15{fill:#D79C58;}
	.st16{fill:#C08750;}
</style>
<g>
	<path class="st0" d="M32.3604,66.1296c-6.542,7.3478-10.2401,17.1842-10.1655,27.039c-1.2736,0.5432-1.1168,2.1117-0.4932,3.3517
		c0.6237,1.24,1.8537,2.035,3.0278,2.7702c3.3561,2.1014,6.9464,4.2735,10.9019,4.2717c6.3074-0.003,11.519-5.9761,12.2236-12.2686
		c0.7046-6.2924-2.2266-12.5207-6.3045-17.3513C39.0036,70.9255,35.6983,68.2292,32.3604,66.1296z"/>
	<path class="st1" d="M53.4035,190.838c0,0-14.4221,7.8973-14.4221,8.5554c0,0.658,19.011-3.2906,19.011-3.2906l-1.3111-5.9229
		L53.4035,190.838z"/>
	<path class="st1" d="M108.2657,189.2314c0,0,16.7734,6.0724,16.9767,6.7118c0.2033,0.6394-19.9109-1.0866-19.9109-1.0866
		l-0.5268-5.9007L108.2657,189.2314z"/>
	<path class="st2" d="M61.2552,133.0432l6.2826-15.1422l-8.7483-5.5039c0,0-16.4871,20.9096-17.2422,31.2875l-0.7051,6.8343
		l7.6149,3.8971c0,0,8.803-14.1022,12.77-21.2803C61.2372,133.1047,61.242,133.0747,61.2552,133.0432z"/>
	<path class="st1" d="M54.7487,110.5299c0,0-8.1577,19.0272-12.2917,27.2795c0,0,14.2706-1.8748,18.8587-7.7984
		c4.5882-5.9235,6.7504-16.7819,6.7504-16.7819L54.7487,110.5299z"/>
	<path class="st0" d="M54.2913,134.703c2.8297-1.1599,5.4776-2.6951,7.0243-4.692c3.2391-4.1819,4.2132-7.1697,4.5079-8.5699
		l-1.6028-0.9091L54.2913,134.703z"/>
	<path class="st3" d="M50.163,148.7417c0,0,4.0013,1.2734,3.1592,10.0623c-0.8537,8.9101-0.4105,22.7272,3.8769,30.2373
		l-1.2685,4.017l-4.613-1.0368c0,0-7.2612-22.581-9.0063-28.9587c-1.7451-6.3776-1.8404-8.4566-1.8404-8.4566l1.5041-3.4028
		L50.163,148.7417z"/>
	<path class="st4" d="M64.897,154.9711"/>
	<polygon class="st5" points="66.7549,45.1931 52.6606,45.1148 53.0935,54.9997 66.7549,61.2384 80.4163,54.9997 80.8492,45.1148 	
		"/>
	<path class="st0" d="M112.3431,90.5231c0,0-3.4991,12.144-5.7993,14.5789c-2.3002,2.4348-1.7346,10.0885-7.7517,9.5182
		c-6.0171-0.5704-13.7037-2.3745-14.9952-3.0705c-1.2916-0.696,6.6503-16.7926,6.6503-16.7926s-3.9047-10.1213,5.8318-20.2401
		s17.9562,5.0003,17.9562,5.0003L112.3431,90.5231z"/>
	<path class="st3" d="M105.4324,64.529l10.4888,17.1108l-2.6222,3.2906c0,0-6.5556-9.8717-15.0777-7.2393l-1.9666-5.2648
		L105.4324,64.529z"/>
	<g>
		<path class="st3" d="M28.7694,61.0308L18.6772,75.7291l2.6968,2.6992c0,0,6.3265-8.4936,14.9059-6.5106l1.8451-4.4879
			L28.7694,61.0308z"/>
		<polygon class="st3" points="35.0506,50.8745 27.9631,55.5064 40.7461,67.3578 43.322,65.6231 		"/>
		<polygon class="st3" points="31.2698,56.5249 26.1632,61.6571 38.8255,69.0745 40.7461,67.3578 		"/>
		<path class="st6" d="M29.4883,58.3153l-3.3251,3.3418l11.5497,6.7657C37.6151,65.0124,32.8717,60.832,29.4883,58.3153z"/>
		<path class="st6" d="M39.1371,61.2573c-1.9899-3.0189-4.2763-5.8935-6.8009-8.6089l-4.3732,2.858l11.988,11.1143
			c0.0161-0.0202,0.0363-0.0381,0.0516-0.0586c0.5997-0.797,0.6759-1.8113,0.4372-2.7283
			C40.2013,62.9169,39.6766,62.0756,39.1371,61.2573z"/>
		<polygon class="st3" points="39.5471,47.423 46.5834,64.9788 43.322,65.6231 32.3992,49.838 		"/>
		<path class="st6" d="M37.9666,47.957l-5.5675,1.881l9.8421,14.2233c0.01-0.0159,0.0228-0.0301,0.0324-0.0462
			c0.6739-1.1186,0.3882-2.4555,0.0598-3.6723C41.1986,56.1372,39.7379,51.9974,37.9666,47.957z"/>
		<path class="st6" d="M26.9619,63.6632l-8.2848,12.0659l1.9617,1.9636c2.329-2.7502,5.5229-4.9753,9.1677-6.3599
			c1.1988-0.4554,2.6252-1.0008,2.852-2.0937c0.1682-0.8102-0.4277-1.5781-1.0493-2.2042
			C30.2906,65.707,28.7109,64.5691,26.9619,63.6632z"/>
	</g>
	<path class="st7" d="M92.9769,59.9223l-9.1777-1.3162l0.6556-5.2649l-9.1777-2.6324l-1.9667,6.581l0,0
		c-2.3637-0.3955-4.7227,0.7288-5.9116,2.8176l-0.6438,1.131l-0.6438-1.131c-1.1889-2.0888-3.5479-3.2131-5.9116-2.8176l0,0
		l-1.9667-6.581l-9.1777,2.6324l0.6556,5.2649l-9.1777,1.3162c0,0-8.5222,18.427-7.8666,19.7432s19.011,27.6405,19.011,27.6405
		s6.5555,1.9744,15.0776,1.9744s15.0776-1.9744,15.0776-1.9744s18.3554-26.3243,19.011-27.6405
		C101.4991,78.3493,92.9769,59.9223,92.9769,59.9223z"/>
	<path class="st8" d="M56.5339,57.1395c0.7114,0.0339,1.4466-0.0495,2.2123-0.2836c-0.241-1.642-0.3284-3.5849-0.5693-5.2268
		c-1.0576,0.3371-2.1152,0.6743-3.1728,1.0114C55.5292,54.1369,56.0884,55.6214,56.5339,57.1395z"/>
	<path class="st3" d="M100.8435,79.6655c0.013-0.0259,0.0161-0.0697,0.0221-0.1087c-0.7154-0.2407-1.4403-0.4673-2.1743-0.6736
		c-20.8848-5.8707-45.1385-4.5218-66.0129,0.8046c0.8061,1.5274,17.0321,27.6182,17.0321,27.6182s8.5222,1.9744,17.0443,1.9744
		s15.0776-1.9744,15.0776-1.9744S100.188,80.9818,100.8435,79.6655z"/>
	<path class="st9" d="M54.2994,29.3202c0,1.9991-1.6143,3.6196-3.6056,3.6196c-1.9913,0-3.6055-1.6206-3.6055-3.6196
		s1.6142-3.6195,3.6055-3.6195C52.6852,25.7006,54.2994,27.3211,54.2994,29.3202z"/>
	<path class="st9" d="M79.2103,29.3202c0,1.9991,1.6143,3.6196,3.6056,3.6196c1.9913,0,3.6055-1.6206,3.6055-3.6196
		s-1.6142-3.6195-3.6055-3.6195C80.8246,25.7006,79.2103,27.3211,79.2103,29.3202z"/>
	<path class="st10" d="M81.177,18.4614c-0.6556-3.9486-2.6223-5.2648-14.4221-5.2648s-13.7666,1.3162-14.4221,5.2648
		c-0.6555,3.9486,0.6556,25.6662,1.3111,26.3244c0.6556,0.6581,7.211,4.6068,13.111,4.6068s12.4555-3.9486,13.111-4.6068
		S81.8325,22.41,81.177,18.4614z"/>
	<path class="st9" d="M66.7549,13.1966c-11.7999,0-13.7666,1.3162-14.4221,5.2648c-0.366,2.2046-0.1188,9.9465,0.2849,16.4711
		l1.6476,0.8084c-2.4613-5.9422-1.1131-13.2823,3.2976-17.9523c2.3081,2.28,5.817,3.2573,8.9652,2.4971
		c2.7428-0.6623,5.0525-2.4936,7.6839-3.5146c2.15-0.8343,4.8882-0.9268,6.6519,0.3655
		C79.8974,14.213,77.1205,13.1966,66.7549,13.1966z"/>
	<path class="st5" d="M65.8076,23.8673c0,0-1.187,10.8547-1.3332,12.1338c-0.3486,3.0486,4.6403,0.9382,4.438,0.9525l-2.8132-1.7175
		L65.8076,23.8673z"/>
	<polygon class="st3" points="102.8101,59.2642 108.0545,65.1871 95.5991,74.4006 93.6325,72.4263 	"/>
	<polygon class="st3" points="98.8768,52.683 106.0879,57.9479 93.6325,72.4263 91.0102,70.452 	"/>
	<polygon class="st3" points="94.288,48.7344 87.7325,69.7939 91.0102,70.452 101.4991,51.3669 	"/>
	<path class="st2" d="M76.5808,108.6752l-10.5191,3.0546l3.8958,12.253l0.6718-0.075c1.4232,4.4762,12.6518,27.06,12.6518,27.06
		l8.2666-1.5857l-0.0785-6.6129C91.6769,132.8135,76.5808,108.6752,76.5808,108.6752z"/>
	<path class="st1" d="M78.0871,109.1691c0,0,8.7888,14.9103,12.2867,23.7899c0,0-14.6155-5.6512-18.8066-12.4669
		c-4.191-6.8156-3.9045-10.1585-3.9045-10.1585L78.0871,109.1691z"/>
	<path class="st3" d="M83.2811,150.9678c0,0-2.4444,2.9218,3.9045,10.1586c6.4366,7.3367,14.976,19.5165,16.3161,27.975
		l3.6226,2.9062l3.0959-2.9945c0,0-8.6224-22.8749-11.3071-29.1967c-2.6847-6.3219-3.9462-8.1675-3.9462-8.1675l-3.4193-2.2666
		L83.2811,150.9678z"/>
	<path class="st6" d="M96.29,154.0633c-3.4702-0.1322-7.2594-1.327-9.2288-3.8205l-3.7801,0.725c0,0-0.5378,0.6431-0.4535,2.0726
		c3.7091,0.687,7.4183,1.3741,11.1275,2.0612c4.7313,11.75,9.8736,23.6495,14.6936,35.4317l1.5717-1.5203
		c0,0-8.6224-22.8749-11.3071-29.1967C97.7943,157.1817,96.9262,155.3335,96.29,154.0633z"/>
	<path class="st1" d="M40.8792,157.1772c2.9233-1.6843,5.4386-4.3806,5.5396-7.3099l3.7442-1.1257c0,0,0.8805,0.2803,1.7284,1.485
		c-2.7729,2.2456-5.546,4.4913-8.319,6.737c3.4678,11.7363,6.6755,23.7813,10.0872,35.5842l-2.342-0.5264
		c0,0-7.2612-22.581-9.0063-28.9587C41.584,160.405,41.1459,158.5026,40.8792,157.1772z"/>
	<path class="st6" d="M94.967,151.6489c0,0,2.486-4.9128-6.6724-12.498C88.2946,139.1508,84.0942,153.5257,94.967,151.6489z"/>
	<path class="st1" d="M70.7241,154.9711"/>
	<ellipse class="st11" cx="60.5272" cy="26.6878" rx="1.6389" ry="1.6453"/>
	<path class="st11" d="M55.4732,24.7498c2.0795-0.0986,4.1848,0.4407,5.963,1.5274c0.6039,0.3691,1.2019,0.8113,1.9039,0.8953
		c1.1403,0.1363,2.2742-0.9051,2.2402-2.0573c-0.2984,0.3741-1.0645,0.1323-1.5031-0.0568
		c-0.4387-0.1892-0.7828-0.5407-1.1545-0.8415c-1.1317-0.9159-2.6082-1.3912-4.0593-1.3069
		C57.4123,22.9944,56.4921,23.7089,55.4732,24.7498z"/>
	<ellipse class="st11" cx="72.9826" cy="26.6878" rx="1.6389" ry="1.6453"/>
	<path class="st11" d="M77.3466,24.7498c-2.0795-0.0986-4.1848,0.4407-5.963,1.5274c-0.6039,0.3691-1.2019,0.8113-1.9039,0.8953
		c-1.1403,0.1363-2.2742-0.9051-2.2402-2.0573c0.2984,0.3741,1.0645,0.1323,1.5032-0.0568
		c0.4386-0.1892,0.7827-0.5407,1.1544-0.8415c1.1317-0.9159,2.6082-1.3912,4.0594-1.3069
		C75.4075,22.9944,76.3277,23.7089,77.3466,24.7498z"/>
	<path class="st11" d="M50.0383,14.1837c0,1.9743,1.9667,18.4271,1.9667,18.4271s0.6556,11.1878,0.6556,12.5041
		c0,1.3162,7.1291,5.5939,14.0943,5.5939s14.0943-4.2778,14.0943-5.5939c0-1.3162,0.6556-12.5041,0.6556-12.5041
		s1.9666-16.4528,1.9666-18.4271c0-1.9744-7.8666-2.6324-7.8666-2.6324l-0.9833,3.2905c7.293,0,6.3189,12.4976,5.7948,15.7123
		c-0.5241,3.2148-2.8767,7.9733-2.8767,7.9733l-8.3579-1.2472c-1.609-0.2401-3.2446-0.2401-4.8536,0l-8.3579,1.2472
		c0,0-2.3527-4.7586-2.8766-7.9733c-0.5241-3.2148-1.4982-15.7123,5.7948-15.7123l-0.9833-3.2905
		C57.905,11.5513,50.0383,12.2093,50.0383,14.1837z M56.5548,44.539l0.4163-4.5163c0,0,5.8496-1.4953,9.7838-1.4953
		s9.7838,1.4953,9.7838,1.4953l0.4163,4.5163c-1.5999,1.1517-6.22,2.3034-6.22,2.3034c-0.9115-3.3746-3.9801-2.7115-3.9801-2.7115
		s-3.0685-0.6631-3.9802,2.7115C62.7747,46.8424,58.1546,45.6907,56.5548,44.539z"/>
	<path class="st11" d="M66.6783,18.1572c5.5189-0.5713,10.9212-4.4665,10.929-10.359c0.0035-2.7117-1.5869-5.4502-4.0861-6.4792
		c0.6542,1.4092-0.143,3.5404-1.4102,4.4341c0.4653-0.871,0.2175-2.0382-0.3491-2.8466c-0.5666-0.8084-1.6049-1.2553-2.5788-1.1099
		c-0.9739,0.1455-1.8377,0.8765-2.1452,1.8156c0.4041-0.7115,1.489-0.7488,1.9924-0.1043c0.5033,0.6445,0.3527,1.6501-0.2083,2.2446
		c-0.5611,0.5946-1.4313,0.8167-2.2448,0.7548c-0.8135-0.0618-1.5858-0.3742-2.3279-0.7145
		c-0.7421-0.3402-1.4763-0.7147-2.2676-0.9141c-1.291-0.3255-2.6999-0.1534-3.8755,0.4734c-2.2293,1.1885-3.397,3.9682-2.95,6.4623
		c0.4782,2.6668,3.1645,4.4547,5.4507,5.4731C62.4528,18.1097,64.574,18.3751,66.6783,18.1572z"/>
	<path class="st0" d="M69.4605,110.795l-1.7485,0.4171c0.1718,1.3957,0.8964,4.4683,3.8551,9.28
		c1.4129,2.2976,4.0115,4.4616,6.8344,6.3227L69.4605,110.795z"/>
	<polygon class="st3" points="70.7522,111.8649 67.1551,112.5872 63.5578,111.8649 59.2411,144.3663 67.1551,154.4778 
		75.0689,144.3663 	"/>
	<path class="st3" d="M53.1428,107.3761l-0.4822-0.07v4.6068c4.7609,1.3163,13.6027,1.3163,13.6027,1.3163s8.8417,0,13.6027-1.3163
		v-4.6068l-0.4822,0.07C70.6853,108.6385,61.8411,108.6385,53.1428,107.3761z"/>
	<path class="st6" d="M66.7549,113.229c0,0,8.5222,0,13.111-1.3163v-3.1464c-5.4864,2.007-11.485,2.5998-17.2519,1.6703
		c-1.4603-0.2354-2.9634-0.5646-4.3989-0.2067c-1.1023,0.275-2.1377,1.116-2.4693,2.1568
		C60.4318,113.2283,66.7549,113.229,66.7549,113.229z"/>
	<path class="st1" d="M40.4708,154.6063c0,0-5.3201-2.8791-2.2668-13.2286C38.204,141.3777,51.1057,151.1982,40.4708,154.6063z"/>
	<path class="st7" d="M104.6398,61.3305l3.4148,3.8566l-11.361,8.404C96.6985,69.5414,101.3261,64.4268,104.6398,61.3305z"/>
	<path class="st7" d="M95.0747,65.1355c1.9069-3.6468,4.1141-7.1321,6.5638-10.4362l4.4495,3.2486L94.4071,71.5258
		c-0.0167-0.0233-0.0373-0.0439-0.0533-0.0676c-0.6212-0.9262-0.7248-2.1273-0.5113-3.223
		C94.0561,67.1394,94.5577,66.1241,95.0747,65.1355z"/>
	<path class="st7" d="M95.8824,49.3164l5.6167,2.0504l-9.4511,17.1968c-0.0104-0.0185-0.0234-0.035-0.0335-0.0537
		c-0.7041-1.3053-0.4551-2.9009-0.1599-4.3554C92.8745,59.1277,94.2219,54.1681,95.8824,49.3164z"/>
	<path class="st7" d="M107.3108,67.5934l8.6103,14.0464l-1.9075,2.3938c-2.403-3.1872-5.6563-5.7233-9.3374-7.2475
		c-1.2108-0.5012-2.6515-1.1019-2.9081-2.3911c-0.1901-0.9559,0.3845-1.8864,0.9889-2.6495
		C104.039,70.1269,105.5872,68.7254,107.3108,67.5934z"/>
	<path class="st12" d="M92.9769,59.9223l-9.1777-1.3162l0.6556-5.2649l-9.1777-2.6324l-1.9667,6.581
		c-2.3637-0.3955-4.7227,0.7288-5.9116,2.8176l-0.6438,1.131v48.042c8.5222,0,15.0776-1.9744,15.0776-1.9744
		s18.3554-26.3243,19.011-27.6405C101.4991,78.3493,92.9769,59.9223,92.9769,59.9223z"/>
	<path class="st6" d="M98.6914,78.8832c-10.1111-2.8422-21.0119-3.9881-31.9365-3.8138v34.211
		c8.5222,0,15.0776-1.9744,15.0776-1.9744s18.3554-26.3243,19.011-27.6405c0.013-0.0259,0.0161-0.0697,0.0221-0.1087
		C100.1502,79.3161,99.4254,79.0896,98.6914,78.8832z"/>
	<path class="st6" d="M73.9659,142.1858l-3.5214-26.5139c-1.7679,0.478-3.5358,0.9558-5.3037,1.4338
		c-0.307,7.7315-1.0031,15.7045-1.3103,23.4358c-0.1446,3.6393,1.4764,7.071,3.2428,10.451L73.9659,142.1858z"/>
	<path class="st1" d="M108.6541,86.0199c0.0194-0.9014-0.0498-1.8906-0.6563-2.5519c-5.7381,2.6716-10.9179,7.4146-14.0402,12.7223
		c0.6396,1.4258,1.8698,2.7767,2.2698,4.2306c0.0884,0.0817,0.177,0.1622,0.2624,0.2553c-0.0651,0.003-0.1303,0.0061-0.1953,0.0091
		c-0.0178-0.0887-0.0429-0.1765-0.0671-0.2644c-0.9045-0.8365-1.964-1.0844-3.24-0.8834c0.905,3.7293-1.0558,7.9187,0.7874,11.2815
		c1.3021,2.3754,4.2317,3.4923,6.9265,3.3147c0.3811-0.0251,0.7572-0.0763,1.1306-0.1417c2.8645-1.8291,2.902-6.9741,4.712-8.89
		c1.072-1.1348,2.4043-4.3787,3.5216-7.5192c-1.2207-0.9112-2.4414-1.8223-3.6621-2.7335
		C107.6737,92.025,108.5869,89.118,108.6541,86.0199z"/>
	<path class="st13" d="M100.346,111.2858c1.011,0.6265,2.269,0.6156,3.2138-0.6783c1.2095-1.6564,1.1759-3.6774,2.2599-5.4045
		c1.2106-1.9286,1.6557-4.264,0.8092-6.4399c-0.2644-0.6795-0.6615-1.3404-1.279-1.7248c-0.9178-0.5712-2.0679-0.1553-2.8793,0.4294
		c-0.7316,0.5272-1.2233,1.3219-1.6378,2.1246c-1.3694,2.6517-2.4178,5.8233-2.2141,8.8528
		C98.6961,109.5961,99.4168,110.7101,100.346,111.2858z"/>
	<path class="st12" d="M91.4491,147.3584c1.0199,1.2129,2.4774,2.1584,3.8223,2.7188c0.0517-1.9588-0.836-5.6455-6.432-10.4618
		C89.4477,142.3649,89.4631,144.9964,91.4491,147.3584z"/>
	<path class="st8" d="M96.6368,75.5811c-1.879-3.9557-2.2854-9.3541-5.706-12.0771c-2.8812-2.2936-6.9346-3.9238-10.6031-3.6722
		c1.1412,5.0343,2.2825,8.7525,3.4238,13.7869C88.271,74.0981,92.1173,75.1018,96.6368,75.5811z"/>
	<path class="st3" d="M67.7451,77.2946c10.0742-0.4599,20.2172,0.6305,29.9661,3.2212c-1.884,3.5152-4.111,7.5583-5.995,11.0736
		c0.4393-1.9972-0.7521-4.5474-2.3507-5.8155c-1.5985-1.268-3.5977-1.8898-5.5467-2.4856
		C78.3108,81.6043,73.2531,78.9785,67.7451,77.2946z"/>
	<path class="st8" d="M57.8262,61.1047c1.6766,0.5508,3.2469,1.4211,4.487,2.619c1.0256,0.7834,1.9699,1.6629,2.8012,2.6574
		c0.0217-0.5531,0.0091-1.1065-0.0527-1.6596c-0.2407-2.1562-1.3524-4.3415-3.3021-5.2779
		c-1.2903-0.6199-2.7795-0.6311-4.2085-0.5696c-1.7136,0.0737-3.4226,0.2399-5.1199,0.4871
		C54.2838,59.7754,56.1044,60.3495,57.8262,61.1047z"/>
	<path class="st9" d="M66.7549,38.5275c-2.2944,0-5.5377,0.6425-5.5377,0.6425l0,0c3.5838,1.2676,7.4915,1.2676,11.0753,0h0.0001
		C72.2926,39.17,69.0493,38.5275,66.7549,38.5275z"/>
	<path class="st14" d="M60.1325,14.9245c-1.2772-1.3456-0.7369-3.7316,0.682-4.9257c1.4187-1.1943,3.3888-1.4597,5.2402-1.4693
		c1.8515-0.0096,3.7375,0.1833,5.5295-0.2842c1.7919-0.4676,3.5243-1.8077,3.7562-3.6518c1.2487,3.7032-0.3838,8.1265-3.5836,10.355
		C68.557,17.1769,62.8191,17.7548,60.1325,14.9245z"/>
	<path class="st3" d="M23.452,100.8713c0,0,11.9816-8.0048,22.547-5.7015c0,0,5.6062,13.5699,10.0604,25.3211l-5.8115,4.6788
		c0,0-3.9194-6.4304-11.486-10.834C30.2359,109.3735,23.452,100.8713,23.452,100.8713z"/>
	<path class="st6" d="M54.5606,122.3087c-8.7887-8.0117-17.5772-16.0235-26.3659-24.0352
		c3.1411-1.4805,7.5051-3.1042,12.0543-3.4495c5.7858,8.5062,11.0585,17.3624,15.8046,26.4944L54.5606,122.3087z"/>
	<g>
		<g>
			<path class="st15" d="M54.8035,128.9162l-9.1367-18.9085l-3.5387,1.7233c0,0,5.422,10.6544,11.4591,17.1811L54.8035,128.9162z"/>
			<path class="st16" d="M54.8035,128.9162l-9.1367-18.9085l3.5388-1.7232c0,0,4.9788,10.8703,6.3476,19.6703L54.8035,128.9162z"/>
			<polygon class="st7" points="44.6346,107.8715 1.327,18.2451 13.1361,26.4154 47.6453,107.5748 			"/>
			<polygon class="st8" points="44.6346,107.8715 1.327,18.2451 0.4086,32.6135 42.5388,110.0616 			"/>
			<path class="st15" d="M52.0261,130.2688c0.7441,1.5399,2.5908,2.1827,4.1248,1.4357c1.5339-0.747,2.1742-2.6009,1.4301-4.1408
				c-0.7441-1.5399-2.5908-2.1827-4.1247-1.4357S51.282,128.7289,52.0261,130.2688z"/>
			<path class="st15" d="M35.5923,110.8348L35.5923,110.8348c0.3043,0.6297,1.0594,0.8926,1.6866,0.5871l14.6866-7.1521
				c0.6273-0.3055,0.8891-1.0636,0.5849-1.6933l0,0c-0.5646-1.1683,0.7785-2.3317,1.8471-1.5998l1.2892,0.8829
				c0.322,0.2205,0.5244,0.5779,0.5485,0.9685l0.2293,3.7187c0.0316,0.5129-0.2483,0.9941-0.7089,1.2185l-18.5727,9.0446
				c-0.5117,0.2491-1.1262,0.124-1.5008-0.3056l-2.2891-2.6255c-0.2212-0.2537-0.3325-0.5854-0.3094-0.9217l0.1137-1.6564
				C33.2861,110.0052,35.0277,109.6664,35.5923,110.8348z"/>
		</g>
	</g>
	<g>
		<path class="st2" d="M59.5916,115.9163c0,0-10.8537,3.2833-13.4601,3.5457c-2.6065,0.2623-1.3056,3.2649-0.28,3.5973
			c1.0256,0.3325-1.2702,3.2717,0.7215,3.5258c1.9916,0.2541,1.8432,3.6234,3.5167,2.7077
			c1.6737-0.9157,8.0267,1.4855,12.7016-4.8166C67.4663,118.174,59.5916,115.9163,59.5916,115.9163z"/>
		<path class="st7" d="M98.6947,120.6144c0,0-5.0124-13.5439-14.9104-17.9106c0,0-13.7119,6.3294-24.1927,13.2125l3.1998,8.5599
			c0,0,6.9346-2.8925,15.6348-1.9941C88.2296,123.4944,98.6947,120.6144,98.6947,120.6144z"/>
		<path class="st12" d="M60.9753,119.6177c11.8005-1.3008,23.6009-2.6017,35.4014-3.9024
			c-1.6756-3.0505-4.2572-6.9381-7.7367-9.9004c-9.6597,3.4718-19.109,7.5294-28.2934,12.1208L60.9753,119.6177z"/>
	</g>
	<path class="st1" d="M26.8496,95.9125c1.5786-2.3458,1.2009-5.5953-0.189-8.0585c-0.8747-1.5505-2.0838-2.8579-3.4038-4.0612
		c-0.7188,3.0697-1.0858,6.2213-1.062,9.3758c-1.2735,0.5432-1.1167,2.1116-0.4931,3.3516c0.3561,0.708,0.9125,1.2682,1.5404,1.7577
		C24.6909,97.9481,26.014,97.1541,26.8496,95.9125z"/>
	<path class="st2" d="M50.4503,109.7892c0.6825-0.2736,1.4753-0.524,2.1251-0.1793c0.5798,0.3076,0.8424,0.9851,1.0588,1.6066
		c0.3608,1.0362,0.7215,2.0725,1.0822,3.1087c0.2738,0.7865,0.5476,1.5729,0.8212,2.3595c0.2971,0.8538,0.5985,1.7424,0.5041,2.6418
		c-0.1285,1.2244-0.9721,2.258-1.9186,3.041c-1.9798,1.6378-4.5785,2.5022-7.1407,2.3752
		c-2.5623-0.1269-5.0635-1.2437-6.8736-3.0694C34.5953,116.1111,46.3613,111.4281,50.4503,109.7892z"/>
</g>
</svg>
