<?xml version="1.0" encoding="utf-8"?>
<!-- Generator: Adobe Illustrator 22.0.1, SVG Export Plug-In . SVG Version: 6.00 Build 0)  -->
<svg version="1.1" id="Layer_1" xmlns="http://www.w3.org/2000/svg" xmlns:xlink="http://www.w3.org/1999/xlink" x="0px" y="0px"
	 viewBox="0 0 100 100" style="enable-background:new 0 0 100 100;" xml:space="preserve">
<style type="text/css">
	.st0{fill:#444242;}
</style>
<g>
	<path class="st0" d="M9.0581,71.8269c0.1268,2.1581,2.4269,3.2651,4.4146,2.8696c2.606-0.5165,4.1923-2.2926,5.0306-4.1433
		c1.1819-2.6086,1.1546-6.0879-0.2894-9.1723c-0.7096-1.5159-2.2521-3.4465-2.0637-5.5213c0,0-2.0777,1.361-1.0532,3.396
		c0.644,1.2785,0.602,3.7359-0.3395,3.7702c-0.7716,0.0284-2.3686-0.0848-3.2445,1.6401c-0.6211,1.2242,0.1305,3.0413,1.9708,3.2459
		C10.5615,67.8241,8.9273,69.6076,9.0581,71.8269z M16.2508,70.0799c2.4541-3.0045,1.9387-6.3327,1.291-7.7461
		c-0.3897-0.8527-0.6651-1.59-0.5427-1.684c0.1268-0.094,0.3536,0.6831,0.873,1.6317c0.3871,0.7145,1.576,4.4521-0.7318,7.7423
		c-2.7048,3.8521-5.2215,3.2493-5.7576,3.1892c-0.3705-0.0417-1.0049-0.2717-1.0082-0.6385
		c-0.0033-0.2238,0.2013-0.4557,0.6411-0.4837C11.4979,72.0577,13.4355,72.7625,16.2508,70.0799z"/>
	<path class="st0" d="M31.3625,60.3494c-1.3585-1.3872-3.0045-2.3147-4.6933-3.2361c-1.5255-0.8324-3.2434-1.8996-3.4889-3.7875
		c-0.0929-0.7188,0.0638-1.3654,0.5998-1.8627c0.2953-0.2747,0.3521-0.6024,0.2643-0.8922
		c0.0531-0.1165,0.0825-0.2525,0.0825-0.4081v-10.581c0-0.6399-0.508-0.9514-1.0041-0.9356
		c-0.0808-0.021-0.1678-0.0332-0.2621-0.0332h-1.7146V23.3373l-1.9376-0.6544V38.613h-1.1524
		c-0.0169-1.3606-0.039-2.7187-0.039-4.0691V22.2804l-1.938-0.6544v16.987h-1.7132c-0.2189,0-0.3985,0.0605-0.5408,0.1582
		c-0.5943-0.0932-1.3036,3.9014-4.214,4.84c-1.9148,0.6174-3.1627,2.5248-3.4934,3.758c-0.3421,1.2346-1.0996,2.0854-2.0604,2.3457
		c-0.9567,0.2592-0.6883,0.9294-0.1146,1.1668c0.5788,0.2448,1.3072,0.2692,1.9678,0.2179
		c0.6569-0.0505,0.9283,0.4748-0.0306,0.6592c-1.9988,0.3893-4.6163,3.699-5.3926,5.8884c-0.487,1.3769-0.0615,1.7532,0.6275,0.9021
		c0.6857-0.8541,2.4444-1.0835,3.9777-1.03c1.531,0.059,2.3402-0.132,2.8596-0.3373c0.5172-0.2002,0.6027-0.487,0.511,0.0221
		c-0.0889,0.5102,0.251,1.1811-0.0822,2.2675c-0.3285,1.0882,1.1129,1.0422,2.099,0.5201c1.9373-1.03,3.869-3.2968,4.3862-4.1661
		c1.0374-1.7463,2.4206-4.1381,2.8637-7.7977c0.2975-2.47,0.3528-4.9734,0.3436-7.4777h1.1351v8.4981
		c-0.6216,0.8885-1.0528,1.8614-1.2756,2.8806c-0.6864,2.0442-1.051,4.3553,0.2087,6.364
		c2.1614,3.4477,4.9152,11.2409-0.3458,15.7738c-4.547,3.9206-7.9278,2.0589-8.6898,1.1822
		c-0.7601-0.8792-1.4219-0.2156-1.0606,1.1473c0.7937,2.975,4.4434,4.6815,7.5883,4.4149c1.5468-0.1308,2.9714-0.7417,3.8742-1.9132
		v19.7515c0,1.249,1.9365,1.249,1.9365,0V78.6078c0.2975-0.0597,0.6024-0.1715,0.8866-0.3653
		c0.9533-0.65,1.249-1.9063,0.9183-2.9134c-0.32-0.9699,0.7336-1.2184,1.1694-0.2289c0.5504,1.249,1.8875,1.7212,3.0343,1.7628
		c1.1524,0.045,2.6133,0.0871,2.9651,0.09c1.142,0.0129-0.9423-2.6668-1.3024-3.4653c-0.7639-1.6939,0.2772-3.1051-0.2083-3.6842
		c-0.4859-0.5807,0.0011-0.511,0.6046-0.3333c0.6009,0.1752,1.7964-0.108,2.4555-0.2842c0.5983-0.1593-0.2293-1.173-0.7712-2.1452
		c-0.5323-0.9574,0.3971-2.505-1.5801-3.9527c-1.9741-1.4503-5.0187-2.6834-7.2251-4.3475
		c-1.0429-0.7874-2.0158-2.2447-2.5452-3.7716c-0.0048-0.0519-0.011-0.1043-0.0236-0.1588c-0.24-1.0503-0.1799-2.1702,0.1736-3.1885
		c0.3653-1.0473,1.0886-1.7323,1.1527-2.8869c0.0233-0.4306-0.0026-0.8707-0.0026-1.3021v-6.8823h1.0436v9.6125
		c0,0.0501,0.0041,0.0977,0.0103,0.1438c-1.0941,1.1985-1.183,2.9285-0.6396,4.4256c0.6706,1.8506,2.265,3.0031,3.9173,3.9357
		c1.6876,0.9519,3.2968,1.8072,4.6667,3.2062c1.2446,1.2707,2.2093,2.8357,2.8519,4.4906c1.2984,3.3436,1.201,7.0722-0.4048,10.2901
		c-0.7628,1.5321-1.8337,2.9061-3.1147,4.0415c-0.0052-0.0051-0.0089-0.0114-0.014-0.0166c-1.312-1.353-3.344-1.6306-4.9937-0.7487
		c-1.3843,0.7403-2.0774,2.3985-1.9421,3.9247c-0.0251,0.087-0.0395,0.1814-0.0395,0.2861v14.5078c0,1.249,1.9373,1.249,1.9373,0
		V85.516c6.8255-1.6891,11.8679-8.3341,11.3765-15.4051C35.5474,66.4567,33.9184,62.959,31.3625,60.3494z M14.4157,49.8476
		c-1.8093,2.4777-3.7532,3.5343-5.0534,3.984c-0.9143,0.3166-1.5086,0.3325-1.5086,0.3325s-0.1806-0.6459,1.089-1.0499
		c1.8765-0.5991,4.5041-3.538,5.2061-5.9213c0.5817-1.98,0.8611-4.21,0.3432-6.6427h1.5871v0.2802
		C16.0791,43.9884,16.4009,47.13,14.4157,49.8476z M25.3484,68.5559c-0.1549,2.7575,2.2458,6.3401,2.2458,6.3401
		c-2.0645-1.5881-3.2688-3.5649-3.0771-7.6057c0.1891-3.9773-3.1114-7.3272-3.1114-7.3272
		C24.9458,62.5546,25.5065,65.7961,25.3484,68.5559z M19.833,59.3655c0.3794-0.1475,0.981,1.1114,1.7415,2.4876
		c0.2326,0.4147,0.8291,1.9173,0.9798,4.2807c0.1327,2.098,0.017,4.5388-1.8388,7.5249c-3.9803,6.4116-8.4159,5.1493-8.8848,5.0903
		c-0.5246-0.0682-1.155-0.2348-1.0923-0.6485c0.055-0.3591,0.4848-0.5784,1.0463-0.4682c0.7247,0.1416,3.9136,0.8737,7.6867-3.4
		c2.4077-2.7273,2.7362-5.6492,2.6355-7.8393C21.9579,62.0072,19.6841,59.5181,19.833,59.3655z"/>
	<path class="st0" d="M55.8622,16.1483c2.074-0.1884,4.005,1.354,5.5209,2.064c3.0841,1.4437,6.5631,1.471,9.1713,0.2894
		c1.8521-0.839,3.6275-2.4253,4.1443-5.0305c0.3949-1.9881-0.7118-4.2878-2.8699-4.4146c-2.2189-0.1316-4.0028,1.503-3.9151,4.4252
		c-0.2046-1.8403-2.0213-2.592-3.2463-1.9711c-1.7246,0.8762-1.6114,2.4729-1.6398,3.2452
		c-0.035,0.9412-2.4916,0.9832-3.7705,0.3385C57.2226,14.0702,55.8622,16.1483,55.8622,16.1483z M60.6514,16.9973
		c0.0944-0.1224,0.8313,0.153,1.684,0.5422c1.4137,0.6485,4.7419,1.1631,7.7464-1.2903c2.6826-2.8161,1.9774-4.7534,2.0114-5.2359
		c0.0276-0.4398,0.2587-0.644,0.4829-0.6407c0.3672,0.0033,0.5972,0.6374,0.6385,1.0086c0.0609,0.5349,0.6632,3.0524-3.1884,5.7572
		c-3.2906,2.3077-7.0283,1.1188-7.7424,0.731C61.3352,17.3512,60.558,17.1248,60.6514,16.9973z"/>
	<path class="st0" d="M75.3313,23.247c1.0068,0.3314,2.2632,0.0358,2.9131-0.9175c0.1943-0.285,0.3056-0.5899,0.3653-0.8866H98.651
		c1.2494,0,1.2494-1.9377,0-1.9377H78.9002c1.1715-0.9021,1.7816-2.3265,1.9129-3.8733c0.2661-3.145-1.4396-6.7942-4.4154-7.5887
		c-1.3625-0.3616-2.0268,0.3005-1.1468,1.0606c0.8774,0.7627,2.7376,4.1429-1.183,8.6895
		c-4.5325,5.2617-12.325,2.5076-15.7723,0.3468c-2.0092-1.2596-4.3202-0.8954-6.3651-0.2094
		c-1.0186,0.2234-1.9918,0.654-2.8802,1.2762h-8.4981v-1.1354c2.5046,0.0096,5.0081-0.0461,7.4777-0.3436
		c3.6596-0.4427,6.0517-1.8259,7.7973-2.8632c0.8697-0.518,3.1368-2.4494,4.1661-4.3862c0.5228-0.9865,0.5688-2.4283-0.5191-2.0991
		c-1.0871,0.3329-1.7581-0.0063-2.2679,0.0822c-0.5095,0.0911-0.2226,0.0059-0.0225-0.511
		c0.2054-0.5197,0.3971-1.3289,0.3373-2.8599c-0.0538-1.5332,0.1762-3.2917,1.0303-3.9778c0.8513-0.689,0.4745-1.1148-0.9021-0.6274
		c-2.1898,0.7764-5.4995,3.3938-5.8884,5.3929c-0.184,0.9588-0.71,0.6872-0.6595,0.0299c0.0505-0.6606,0.0265-1.3891-0.2175-1.9671
		c-0.2374-0.5736-0.9077-0.842-1.1668,0.1143c-0.2603,0.9607-1.1111,1.7186-2.3464,2.0604
		c-1.2331,0.331-3.1398,1.5782-3.7569,3.4925c-0.939,2.9113-4.9344,3.6209-4.8404,4.2148
		c-0.0976,0.1426-0.1585,0.3218-0.1585,0.5404v1.7138H22.1224l0.6547,1.9376h11.7688c1.35,0,2.7085,0.0221,4.0692,0.0398v1.152
		H23.1803l0.6544,1.938H38.615v1.7135c0,0.0951,0.0122,0.1821,0.0335,0.2624c-0.0162,0.4962,0.2953,1.0042,0.9349,1.0042h10.5813
		c0.156,0,0.2913-0.0299,0.4078-0.0822c0.2901,0.0881,0.6186,0.0306,0.8917-0.2643c0.4988-0.5363,1.145-0.6931,1.8636-0.5998
		c1.8882,0.2451,2.9547,1.9631,3.7875,3.4893c0.9212,1.688,1.8488,3.3337,3.2364,4.6933c2.6093,2.555,6.1074,4.1845,9.7611,4.4382
		c7.071,0.4917,13.7167-4.551,15.4047-11.3758H98.651c1.2494,0,1.2494-1.938,0-1.938H84.1435c-0.1043,0-0.1991,0.0147-0.2857,0.0394
		c-1.5262-0.1349-3.1844,0.5578-3.9247,1.9424c-0.8818,1.6494-0.6045,3.6814,0.7487,4.993
		c0.0052,0.0051,0.0103,0.0096,0.0159,0.0147c-1.1351,1.2811-2.509,2.3513-4.0411,3.1151
		c-3.2179,1.6051-6.9465,1.7024-10.2901,0.4037c-1.6553-0.6418-3.2197-1.607-4.4902-2.8512
		c-1.3994-1.3703-2.2546-2.9798-3.2065-4.6668c-0.9323-1.6522-2.0851-3.2467-3.9357-3.918
		c-1.4971-0.5434-3.2271-0.4538-4.4256,0.6399c-0.0461-0.0059-0.094-0.0103-0.1438-0.0103h-9.6125V21.145h6.8819
		c0.4313,0,0.8715,0.0247,1.3028,0.0011c1.1539-0.0638,1.8395-0.7875,2.8866-1.1517c1.0178-0.3539,2.1381-0.414,3.1884-0.1736
		c0.0546,0.0118,0.1077,0.0188,0.1592,0.0229c1.527,0.5297,2.9839,1.5018,3.7713,2.5459c1.6641,2.2059,2.8976,5.2506,4.3475,7.2248
		c1.4476,1.9778,2.9952,1.0477,3.9522,1.5797c0.9721,0.5426,1.9859,1.3699,2.1452,0.7712c0.177-0.6584,0.4601-1.8536,0.2846-2.4552
		c-0.1777-0.6038-0.2473-1.0901,0.334-0.605c0.5788,0.4855,1.9899-0.5548,3.6832,0.2094c0.7989,0.3587,3.4782,2.4441,3.4653,1.3013
		c-0.0026-0.3513-0.0453-1.8127-0.0892-2.965c-0.0413-1.1465-0.5143-2.4832-1.764-3.0344
		C74.1118,23.981,74.3615,22.9274,75.3313,23.247z M40.5522,14.4905c2.4334,0.5175,4.6623,0.2385,6.643-0.344
		c2.3834-0.7015,5.3219-3.3293,5.9209-5.2057c0.4048-1.2701,1.0503-1.0898,1.0503-1.0898s-0.0162,0.5954-0.3329,1.51
		c-0.4494,1.2999-1.5067,3.243-3.9843,5.0527c-2.717,1.9852-5.8586,1.6637-9.0172,1.6637h-0.2798V14.4905z M74.8982,27.5919
		c0,0-3.5837-2.3995-6.3407-2.2454c-2.759,0.1581-6.0013-0.4029-8.5925-3.9427c0,0,3.3503,3.2998,7.3273,3.1118
		C71.3329,24.3231,73.3097,25.5278,74.8982,27.5919z M73.6613,20.7132c-2.9871,1.8559-5.4276,1.9716-7.5256,1.8389
		c-2.3634-0.15-3.8663-0.7465-4.2815-0.9792c-1.3758-0.7613-2.6339-1.3625-2.4869-1.7418c0.1526-0.1486,2.6417,2.1252,7.0276,2.2742
		c2.1905,0.0999,5.1128-0.2279,7.839-2.6358c4.2748-3.7732,3.542-6.962,3.4008-7.6864c-0.1102-0.561,0.1088-0.9917,0.4682-1.0466
		c0.4137-0.0627,0.5795,0.5681,0.6481,1.0923C78.8102,12.2978,80.0725,16.733,73.6613,20.7132z"/>
	<path class="st0" d="M19.2281,12.86l-8.0797-2.7295c-0.1087-0.0365-0.2079-0.0542-0.2953-0.0542c-0.3414,0-0.4962,0.2706-0.351,0.7
		l2.7299,8.0797c0.1821,0.539,0.766,1.1229,1.3046,1.3054l1.5425,0.5205l0.3373,0.1139l1.0322,0.3491l0.5685,0.1917l1.1915,0.4026
		l1.9376,0.6544l1.4705,0.4969c0.1092,0.0369,0.2075,0.0546,0.2954,0.0546c0.341,0,0.495-0.271,0.3502-0.7004l-0.3716-1.0997
		l-0.654-1.938l-0.4029-1.1918l-0.6547-1.9376l-0.6462-1.9125C20.351,13.626,19.7666,13.0421,19.2281,12.86z"/>
</g>
</svg>
